<svg xmlns="http://www.w3.org/2000/svg" xmlns:xlink="http://www.w3.org/1999/xlink" width="113" height="23.089" viewBox="0 0 113 23.089">
  <defs>
    <clipPath id="clip-path">
      <rect id="Rectangle_44" data-name="Rectangle 44" width="18.491" height="18.491" transform="translate(204.279 52.089) rotate(-90)" fill="#fff"/>
    </clipPath>
  </defs>
  <path id="Path_112" data-name="Path 112" d="M143.9,30.03V42.988a6.1,6.1,0,0,1-1.707,4.635,6.274,6.274,0,0,1-4.555,1.626,6.757,6.757,0,0,1-4.825-1.708A6.337,6.337,0,0,1,131,42.689h4.608a2.9,2.9,0,0,0,.488,1.816,1.717,1.717,0,0,0,1.41.6,1.614,1.614,0,0,0,1.3-.542,2.367,2.367,0,0,0,.461-1.572V30.03Z" transform="translate(-131 -29)"/>
  <path id="Path_113" data-name="Path 113" d="M154.533,49.277a8.43,8.43,0,0,1-4.012-.949,7.061,7.061,0,0,1-2.792-2.711,8.183,8.183,0,0,1-1-4.12,7.959,7.959,0,0,1,1.03-4.093,6.972,6.972,0,0,1,2.819-2.738,8.958,8.958,0,0,1,8.024,0,6.959,6.959,0,0,1,2.819,2.738,8.6,8.6,0,0,1-.027,8.214,6.965,6.965,0,0,1-2.846,2.711A8.43,8.43,0,0,1,154.533,49.277Zm0-4.012a2.976,2.976,0,0,0,2.25-.976,3.84,3.84,0,0,0,.949-2.792,3.91,3.91,0,0,0-.922-2.792,2.892,2.892,0,0,0-2.223-.976,2.925,2.925,0,0,0-2.25.976,3.929,3.929,0,0,0-.894,2.792,4.07,4.07,0,0,0,.867,2.792A2.9,2.9,0,0,0,154.533,45.265Z" transform="translate(-131 -29)"/>
  <path id="Path_114" data-name="Path 114" d="M169.543,36.075a4.769,4.769,0,0,1,1.871-1.708,5.84,5.84,0,0,1,2.792-.651,6.261,6.261,0,0,1,3.388.949,6.488,6.488,0,0,1,2.386,2.711,8.93,8.93,0,0,1,.894,4.093,9.1,9.1,0,0,1-.894,4.12,6.677,6.677,0,0,1-2.386,2.738,6.261,6.261,0,0,1-3.388.949,5.942,5.942,0,0,1-2.792-.624,5.029,5.029,0,0,1-1.871-1.708V49.06h-4.635V29h4.635Zm6.614,5.394a3.666,3.666,0,0,0-.975-2.711,3.116,3.116,0,0,0-2.359-1,3.17,3.17,0,0,0-2.358,1,3.82,3.82,0,0,0-.949,2.738,3.82,3.82,0,0,0,.949,2.738,3.274,3.274,0,0,0,4.717,0A3.857,3.857,0,0,0,176.157,41.47Z" transform="translate(-131 -29)"/>
  <path id="Path_115" data-name="Path 115" d="M201.666,49.06h-4.635l-7.753-11.738V49.06h-4.635V30.03h4.635l7.753,11.792V30.03h4.635Z" transform="translate(-131 -29)" fill="#0c9"/>
  <path id="Path_117" data-name="Path 117" d="M244,33.934,239.907,49.06h-5.124L232.4,39.247l-2.467,9.813h-5.1l-4.121-15.126h4.636l2.141,10.816,2.549-10.816h4.906L237.521,44.7l2.115-10.762Z" transform="translate(-131 -29)" fill="#0c9"/>
  <g id="Group_25" data-name="Group 25" transform="translate(-131 -29)" clip-path="url(#clip-path)">
    <path id="Path_118" data-name="Path 118" d="M204.279,41.724A7.906,7.906,0,0,0,216.4,48.411l.007.017,3.439,3.439,2.922-2.922-3.564-3.563-.015,0a7.905,7.905,0,1,0-14.912-3.661Zm3.511,0a4.393,4.393,0,1,1,4.393,4.393A4.393,4.393,0,0,1,207.79,41.724Z" fill="#0c9"/>
  </g>
</svg>
